<?xml version="1.0" encoding="UTF-8"?> <svg xmlns="http://www.w3.org/2000/svg" id="a" viewBox="0 0 499.37 349"><defs><style>.c{fill:#fff;}</style></defs><g id="b"><path class="c" d="M236.1,254.31v-26.41h44.57v28.89c0,9.08,2.06,12.79,8.25,12.79,5.78,0,7.43-4.13,7.43-14.85v-10.73c0-24.35-7-35.49-27.65-80.48-20.22-44.16-31.36-64-31.36-99.87v-7c0-34.67,18.57-51.59,52.41-51.59s50.35,16.5,50.35,48.27v23.53h-43.34v-23.53c0-8.25-2.47-10.73-7.42-10.73-4.13,0-6.61,2.48-6.61,12.39v6.19c0,21.87,5.78,30.12,26.41,76.34,19.81,43.33,32.61,65.21,32.61,104.82v11.15c0,36.73-18.57,52.82-53.24,52.82-29.71,0-52.41-13.62-52.41-52Z"></path><path class="c" d="M352.47,7.94h45.81V265h35.49v38h-81.3V7.94Z"></path><path class="c" d="M447,7.94h45.81V303h-45.81V7.94Z"></path><path class="c" d="M21,327.69c5.71,.29,13.74,.68,13.72,5.81,0,5.85-6.7,7.24-13.89,7.24s-13.12-.89-13.88-7.24H15.31c.91,1.59,3,2,5.52,2s5.53-.41,5.53-2c0-.9-2.48-1-5.69-1.18-5.71-.29-13.74-.69-13.72-5.81,0-5.84,6.7-7.24,13.88-7.24s13.13,.85,13.89,7.24h-8.41c-.91-1.61-3-2-5.53-2s-5.52,.36-5.52,2c0,.9,2.48,1.02,5.74,1.18Z"></path><path class="c" d="M44.4,340.27v-14h-9.49v-6.47h27v6.49h-9.49v14l-8.02-.02Z"></path><path class="c" d="M84.24,319.78c4.27,0,7.74,3.47,7.74,7.74,.02,1.49-.41,2.95-1.23,4.19-.79,1.22-1.91,2.19-3.23,2.8l4.46,5.74h-8.5l-3.85-5h-7.13v5h-8v-20.47h19.74Zm-11.74,6v3.48h9.73c.96,.01,1.75-.76,1.76-1.72h0c0-.97-.77-1.75-1.73-1.76-.01,0-.02,0-.03,0h-9.73Z"></path><path class="c" d="M94.44,319.8h24v5.2h-16v2.62h16v4.73h-16v2.65h16v5.26h-24v-20.46Z"></path><path class="c" d="M122.62,319.8h24v5.2h-16v2.62h16v4.73h-16v2.65h16v5.26h-24v-20.46Z"></path><path class="c" d="M158.56,340.27v-14h-9.49v-6.47h27v6.49h-9.48v14l-8.03-.02Z"></path><path class="c" d="M186.66,319.77v14h16v6.48h-24v-20.48h8Z"></path><path class="c" d="M213.31,319.77v20.46h-8v-20.46h8Z"></path><path class="c" d="M217.54,319.8h25v6.49h-17v2.49h15v6h-15v5.5h-8v-20.48Z"></path><path class="c" d="M254.86,340.27v-14h-9.49v-6.47h26.95v6.49h-9.49v14l-7.97-.02Z"></path><path class="c" d="M283,319.77v20.46h-8v-20.46h8Z"></path><path class="c" d="M307.16,319.77h8v20.46h-9l-11-12.5v12.5h-8v-20.46h11l9,10.84v-10.84Z"></path><path class="c" d="M331.9,329h13.9v11.74h-4l-.4-3.19c-2.37,2.35-6,3.19-9.45,3.19-7.71,0-14-2.26-14-10v-1.5c0-7.75,6.27-10,14-10,7.09,0,12.94,1.93,13.84,8.23h-8.48c-.54-.7-1.31-1.19-2.18-1.38-1.04-.26-2.11-.38-3.18-.37-3.28,.05-6,.66-6,4v.5c0,3.37,2.72,3.95,6,4s5.16-.18,6.36-1.73h-6.41v-3.49Z"></path><path class="c" d="M369.61,319.77v20.46h-8v-20.46h8Z"></path><path class="c" d="M381.59,340.27v-14h-9.49v-6.47h27v6.49h-9.49v14l-8.02-.02Z"></path><path class="c" d="M404.73,319.8h9.49l11,20.47h-9l-1.61-3.51h-10.26l-1.61,3.51h-9l10.99-20.47Zm1.94,12h5.62l-2.81-6-2.81,6Z"></path><path class="c" d="M433.78,319.77v14h16v6.48h-24v-20.48h8Z"></path><path class="c" d="M460.43,319.77v20.46h-8v-20.46h8Z"></path><path class="c" d="M472,319.8h9.49l11,20.47h-9l-1.62-3.51h-10.24l-1.63,3.51h-9l11-20.47Zm1.94,12h5.62l-2.81-6-2.81,6Z"></path><path class="c" d="M199.38,270.66c-2.35-4.69-4.25-9.37-6.22-14-.11-.32,.06-.68,.38-.79,.27-.09,.56,0,.72,.24,.05,0,1.5,1.72,2.24,2.74,2.48,3.43,5,6.85,7.39,10.31,.71,1.03,1.33,2.12,1.85,3.25,1.59,3.44,3,7,4.62,10.4,3.21,6.85,6.52,13.65,9.75,20.49,.35,.73,.54,1.53,.57,2.34,0,0,.06-18.27,.08-.4v1.08s-204.94,.19-213.8,.06c0-1.47-.11-219.72-.14-222.76l10.73-.06,10.8-.06,10.79-.1,10.61-.11c3.6,0,7.19-.11,10.79-.08s7,0,10.9-.07c-.42,.82-.72,1.6-1,2.15-6.59,13.13-13.25,26.24-19.76,39.41-4.92,9.74-9.16,19.82-12.68,30.15-2.26,6.97-3.25,14.3-2.92,21.62,.3,8.45,.32,16.91,.71,25.36,.28,6,1,12.07,1.51,18.1,.12,.81,.39,1.59,.82,2.29,4,7,8.11,14,12,21,2.11,3.89,5.12,7.22,8.77,9.71,2.38,1.61,4.59,3.48,7,5.09,1.2,.8,2.51,1.4,3.89,1.8,16.12,4.76,32.08,10,48,15.49,1.77,.69,3.58,1.25,5.42,1.69,1.78,.4,3.6,.54,5.42,.42,10.48-1.07,20.94-2.34,31.42-3.44,7.6-.79,15.21-1.36,22.81-2.12,5.14-.62,10.31-.96,15.48-1,.35-.04,.71-.11,1.05-.2Z"></path><path class="c" d="M82.2,64.2H6.77V5.42H220.37c.44,1.41,.19,53.84,.23,58.91h-1.78l-64.57-.12h-.56c.22-1.3-.7-2.21-1.65-2.89-6.41-4.6-12.79-9.23-19.21-13.81-.9-.58-1.85-1.09-2.83-1.51-3.5-1.74-7-3.46-10.54-5.2-.3,.14-.59,.26-.86,.41-4.46,2.36-9,4.63-13.36,7.11-4.66,2.63-9.23,5.44-13.82,8.2-.76,.55-1.65,.9-2.59,1-1.6,.03-3.07,.92-3.83,2.33-.86,1.48-1.85,2.87-2.8,4.35Z"></path><path class="c" d="M73.78,213.08c4.74-4,9.48-8,14.27-11.86,.95-.72,1.68-1.68,2.12-2.79,4-10.39,8.08-20.76,12.08-31.15,.37-.96,.57-1.97,.58-3,.21-20.96,.39-41.92,.55-62.88-.02-1.01-.14-2.02-.38-3-.73-3.33-1.52-6.64-2.27-10-.12-.53-.27-1.08-.33-1.53,.65-.49,1.55-.49,2.2,0,4.39,2.21,8.77,4.44,13.18,6.62,3,1.48,6,2.9,9.06,4.31,.53,.19,1.07,.32,1.62,.4,4.36,1,8.34-.23,12.26-2.11,3.05-1.46,6.2-2.72,9.32-4,.9-.32,1.55-1.12,1.67-2.07,.39-2.1,.84-4.2,1.3-6.44h69.55v102.86l-7.45,1.25c-1.74,.3-3.51,.46-5.22,.9-1.66,.35-3.26,.93-4.77,1.71-3.33,1.92-6.52,4.07-9.77,6.13-.33,.24-.65,.51-.95,.79,.37,.5,.69,.94,1,1.37,1.77,2.3,3.56,4.58,5.3,6.91,.16,.21,.29,.44,.38,.68,.11,.39-.12,.79-.51,.9-.19,.05-.4,.03-.57-.08l-.32-.26c-6.47-4.51-12.87-9.13-19.41-13.53-5.23-3.52-10.65-6.77-16-10.16-.89-.57-1.94-.87-3-.84-9.21,.21-18.42,.39-27.64,.56-2.33,.04-4.62,.7-6.61,1.91-16.63,9.8-33.29,19.55-50,29.26-1.39,.93-2.29,.06-1.24-.86Z"></path></g></svg> 